<?xml version="1.0" standalone="no"?>
<!DOCTYPE svg PUBLIC "-//W3C//DTD SVG 20010904//EN"
 "http://www.w3.org/TR/2001/REC-SVG-20010904/DTD/svg10.dtd">
<svg version="1.0" xmlns="http://www.w3.org/2000/svg"
 width="175.000000pt" height="140.000000pt" viewBox="0 0 175.000000 140.000000"
 preserveAspectRatio="xMidYMid meet">

<g transform="translate(0.000000,140.000000) scale(0.100000,-0.100000)"
fill="#000000" stroke="none">
<path d="M1038 963 c-16 -2 -28 -10 -28 -18 0 -8 7 -11 19 -8 16 4 19 1 14
-16 -4 -17 -8 -19 -19 -10 -11 9 -14 7 -14 -10 0 -11 -5 -21 -11 -21 -6 0 -9
-7 -5 -15 3 -8 1 -15 -4 -15 -6 0 -10 7 -10 15 0 25 -40 18 -41 -7 -1 -21 -1
-22 -7 -3 -5 14 -16 20 -37 20 -16 0 -30 -5 -30 -12 0 -6 -3 -15 -7 -19 -5 -4
-8 2 -8 13 0 16 -5 20 -19 16 -11 -3 -22 -12 -24 -22 -4 -14 -5 -14 -6 2 -1
10 -9 17 -20 17 -11 0 -22 -8 -24 -17 -4 -17 -5 -17 -6 0 0 9 -6 17 -12 17 -6
0 -9 -7 -5 -15 3 -8 1 -15 -4 -15 -6 0 -10 7 -10 15 0 8 -4 15 -10 15 -5 0 -7
-7 -4 -15 4 -8 1 -15 -4 -15 -6 0 -13 8 -15 18 -4 13 -5 12 -6 -5 -1 -16 -6
-20 -21 -16 -11 3 -20 11 -20 18 0 7 -8 12 -17 11 -14 -1 -19 8 -21 42 -3 45
-10 49 -62 32 l-25 -8 28 -1 c21 -1 27 -6 26 -23 0 -13 -3 -17 -6 -10 -7 19
-23 4 -23 -24 0 -13 6 -24 13 -25 6 0 2 -4 -11 -10 -13 -5 -20 -13 -17 -19 4
-6 10 -8 14 -5 5 2 13 -7 20 -21 14 -31 15 -55 1 -34 -8 12 -10 10 -10 -10 0
-15 6 -32 13 -39 8 -10 8 -12 0 -7 -16 9 -11 -29 10 -78 19 -44 20 -49 8 -42
-5 3 -11 -3 -14 -14 -3 -11 -1 -23 4 -26 5 -3 9 -10 9 -15 0 -6 -4 -8 -8 -5
-4 2 -8 -4 -8 -14 0 -10 4 -17 7 -14 4 2 10 0 13 -5 4 -5 2 -12 -3 -15 -5 -3
-7 -24 -5 -46 4 -49 -19 -56 -35 -10 -10 30 -31 41 -31 18 0 -9 -4 -8 -10 2
-6 10 -10 11 -10 3 0 -7 -8 -13 -17 -13 -37 0 8 25 52 29 6 1 3 6 -5 11 -13 9
-13 10 0 10 13 0 13 2 1 9 -8 5 -24 8 -37 6 -13 -1 -24 2 -24 7 0 5 12 9 28 8
43 -3 49 0 22 12 -51 23 -60 15 -60 -54 0 -50 -11 -57 -49 -34 -11 7 -13 5 -8
-7 9 -24 0 -21 -14 4 -8 17 -8 20 1 14 19 -12 1 35 -23 59 -16 17 -19 18 -14
4 4 -12 1 -18 -9 -18 -12 0 -14 -8 -8 -46 5 -37 4 -46 -7 -42 -9 3 -15 23 -17
56 -3 46 0 55 24 77 33 30 45 31 69 5 14 -15 15 -20 4 -20 -10 0 -11 -3 -2 -8
6 -4 13 -21 16 -37 4 -29 4 -28 6 5 0 20 6 41 11 48 6 6 8 10 5 8 -3 -2 -19 9
-35 25 -34 34 -52 36 -90 9 l-29 -21 2 21 c2 24 38 33 109 27 26 -2 45 0 42 5
-3 4 -42 8 -86 8 l-81 0 6 -75 c6 -82 -8 -159 -24 -134 -8 12 -10 12 -19 -1
-8 -12 -10 -10 -10 10 -1 24 -1 24 -12 5 -16 -30 -18 -31 -28 -15 -8 13 -11
12 -23 -4 -13 -17 -14 -17 -25 10 -17 44 -8 104 20 126 28 22 38 23 38 3 0 -8
5 -15 10 -15 6 0 10 5 10 11 0 8 5 8 15 -1 9 -7 15 -8 15 -2 0 6 -13 22 -30
35 -16 14 -30 27 -30 30 0 2 14 2 30 -1 26 -4 30 -1 30 19 0 14 -4 19 -8 13
-4 -6 -20 -11 -37 -11 -16 0 -41 -6 -55 -12 -23 -10 -23 -11 -2 -7 29 6 28 0
-8 -34 -27 -26 -30 -34 -30 -93 0 -45 -4 -66 -13 -70 -10 -4 -16 19 -25 96
-21 174 -32 140 -32 -94 0 -117 4 -207 9 -199 4 8 14 40 21 71 l13 56 151 2
c153 1 286 7 386 17 36 4 52 2 45 -4 -13 -12 -219 -70 -397 -112 -130 -30
-138 -33 -138 -56 0 -14 6 -24 15 -24 20 0 333 103 438 144 91 36 121 33 40
-5 -75 -33 -219 -92 -326 -133 -57 -22 -96 -43 -94 -49 2 -7 33 -13 77 -15 41
-1 76 -5 79 -8 3 -3 0 -13 -7 -24 -11 -17 -9 -19 20 -15 17 2 34 8 37 13 3 5
26 22 51 37 25 15 47 31 50 34 3 4 21 18 40 31 19 13 37 27 40 30 32 34 107
83 133 85 18 2 35 3 40 4 4 1 7 8 7 16 0 8 6 15 13 15 6 1 42 3 80 6 38 3 67
1 67 -5 0 -8 52 -31 72 -31 5 0 8 17 7 38 -4 40 -7 39 73 28 21 -3 40 -1 43 4
9 15 35 12 35 -4 0 -21 30 -29 31 -8 0 12 4 9 11 -8 6 -15 12 -20 15 -12 3 6
17 12 31 11 24 0 25 -1 7 -9 -18 -7 -18 -9 -3 -15 9 -4 22 -4 28 0 6 4 17 1
25 -5 9 -7 35 -13 59 -14 24 0 42 -4 40 -7 -5 -8 21 -19 42 -19 9 0 13 5 9 13
-4 6 0 4 8 -5 17 -22 27 -23 27 -4 0 8 13 24 28 34 27 20 28 20 52 1 14 -10
21 -19 15 -19 -5 0 -3 -5 5 -10 11 -7 11 -10 2 -10 -7 0 -24 7 -38 16 -22 15
-24 15 -18 0 4 -11 1 -16 -12 -16 -18 -1 -18 -1 -1 -11 10 -6 21 -8 24 -5 4 3
12 1 19 -5 7 -6 26 -11 43 -11 17 -1 31 -5 31 -10 0 -5 19 -8 43 -6 l42 3 3
138 c1 75 -1 137 -6 137 -4 0 -9 11 -10 26 -1 14 2 23 8 19 6 -4 10 9 10 32 0
26 -3 34 -9 24 -5 -8 -7 -20 -4 -28 3 -7 0 -13 -6 -13 -9 0 -16 65 -8 88 3 11
-147 18 -155 7 -4 -5 -8 0 -8 13 0 20 -5 22 -67 23 -38 1 -80 2 -95 2 -17 1
-28 7 -28 15 0 7 -5 10 -10 7 -6 -4 -8 -10 -6 -14 3 -4 -1 -8 -8 -8 -9 0 -12
7 -9 16 5 13 3 14 -8 4 -16 -16 -29 -17 -29 -2 0 5 4 8 9 4 5 -3 12 -1 15 4 4
5 22 8 41 6 19 -2 35 1 35 6 0 5 -6 9 -14 9 -8 0 -16 6 -19 14 -4 10 -21 13
-61 11 -44 -2 -56 1 -59 14 -4 14 -5 13 -6 -1 0 -10 -5 -18 -10 -18 -5 0 -12
8 -14 18 -4 16 -5 16 -6 0 0 -10 -5 -18 -11 -18 -5 0 -10 8 -11 18 0 14 -2 14
-9 -3 -7 -17 -9 -17 -9 -2 -1 9 -5 17 -10 17 -5 0 -12 -8 -14 -17 -4 -17 -5
-17 -6 0 0 9 -5 17 -11 17 -5 0 -10 22 -10 49 0 61 -11 141 -19 140 -3 -1 -18
-4 -33 -6z m-248 -113 c0 -5 -4 -10 -10 -10 -5 0 -10 5 -10 10 0 6 5 10 10 10
6 0 10 -4 10 -10z m50 0 c0 -5 -2 -10 -4 -10 -3 0 -8 5 -11 10 -3 6 -1 10 4
10 6 0 11 -4 11 -10z m-57 -63 c4 3 7 2 7 -4 0 -17 -26 -23 -91 -23 -46 0 -59
3 -59 15 0 13 10 15 50 11 27 -2 52 0 56 5 4 6 10 6 18 0 7 -6 16 -8 19 -4z
m77 -1 c0 -9 -8 -12 -25 -8 -28 5 -24 22 6 22 10 0 19 -6 19 -14z m65 -6 c-3
-5 -13 -6 -21 -3 -12 4 -13 8 -3 14 15 9 32 2 24 -11z m35 16 c0 -3 -4 -8 -10
-11 -5 -3 -10 -1 -10 4 0 6 5 11 10 11 6 0 10 -2 10 -4z m-275 -56 c-3 -5 -10
-10 -16 -10 -5 0 -9 5 -9 10 0 6 7 10 16 10 8 0 12 -4 9 -10z m362 -22 c-3 -8
-6 -5 -6 6 -1 11 2 17 5 13 3 -3 4 -12 1 -19z m-338 -24 c-7 -8 -7 -14 -1 -14
5 0 15 7 22 15 7 9 15 13 18 11 2 -3 -9 -21 -27 -41 -17 -20 -31 -43 -31 -51
0 -9 -7 -14 -17 -12 -20 4 -24 37 -6 56 16 17 28 15 14 -2 -9 -11 -9 -16 1
-22 7 -4 10 -4 6 1 -4 4 -3 14 3 22 8 9 8 17 0 26 -8 10 -7 17 1 25 16 16 32
3 17 -14z m347 -69 c0 -14 -5 -25 -11 -25 -6 0 -12 11 -13 25 -1 15 3 25 11
25 7 0 13 -11 13 -25z m374 1 c0 -11 -19 -15 -25 -6 -3 5 1 10 9 10 9 0 16 -2
16 -4z m47 -2 c-3 -3 -12 -4 -19 -1 -8 3 -5 6 6 6 11 1 17 -2 13 -5z m-503
-24 c22 0 14 -26 -8 -28 -15 -1 -17 1 -7 7 9 6 10 11 2 15 -6 4 -11 13 -10 19
0 9 2 9 6 0 2 -7 10 -13 17 -13z m306 16 c0 -2 -7 -7 -16 -10 -8 -3 -12 -2 -9
4 6 10 25 14 25 6z m-594 -38 c5 -7 2 -8 -7 -3 -11 6 -12 5 -1 -6 7 -7 12 -39
12 -73 0 -43 -3 -57 -10 -46 -7 11 -10 5 -10 -25 0 -25 -3 -35 -9 -27 -14 22
-7 77 9 74 11 -3 10 2 -3 16 -12 13 -17 32 -15 61 3 40 19 54 34 29z m385 -15
c0 -16 2 -35 4 -43 1 -9 -9 -23 -24 -31 l-26 -15 -2 45 c-3 59 2 71 27 71 15
0 20 -7 21 -27z m-707 -91 c2 -4 -4 -8 -14 -8 -10 0 -16 4 -14 8 3 4 9 8 14 8
5 0 11 -4 14 -8z m126 4 c0 -3 -4 -8 -10 -11 -5 -3 -10 -1 -10 4 0 6 5 11 10
11 6 0 10 -2 10 -4z m451 -33 c-12 -20 -14 -14 -5 12 4 9 9 14 11 11 3 -2 0
-13 -6 -23z m116 11 c-3 -3 -12 -4 -19 -1 -8 3 -5 6 6 6 11 1 17 -2 13 -5z m7
-29 c-4 -8 -12 -15 -20 -15 -8 0 -14 7 -14 15 0 8 9 15 20 15 13 0 18 -5 14
-15z m553 9 c-3 -3 -12 -4 -19 -1 -8 3 -5 6 6 6 11 1 17 -2 13 -5z m-802 -44
c3 -5 -1 -10 -10 -10 -9 0 -13 5 -10 10 3 6 8 10 10 10 2 0 7 -4 10 -10z m195
-4 c0 -3 -4 -8 -10 -11 -5 -3 -10 -1 -10 4 0 6 5 11 10 11 6 0 10 -2 10 -4z
m-855 -26 c3 -5 1 -10 -4 -10 -6 0 -11 5 -11 10 0 6 2 10 4 10 3 0 8 -4 11
-10z m45 0 c0 -5 -5 -10 -11 -10 -5 0 -7 5 -4 10 3 6 8 10 11 10 2 0 4 -4 4
-10z m611 -3 c-1 -12 -15 -9 -19 4 -3 6 1 10 8 8 6 -3 11 -8 11 -12z m563 -24
c-1 -16 -3 -32 -4 -38 0 -5 -6 -2 -13 7 -7 9 -29 18 -48 21 l-34 4 36 1 c22 1
39 8 43 17 9 25 22 17 20 -12z m250 13 c-10 -8 -21 -10 -24 -6 -3 5 -37 11
-75 13 -63 3 -61 3 24 5 84 2 93 0 75 -12z m79 -6 c-3 -11 -7 -20 -9 -20 -2 0
-4 9 -4 20 0 11 4 20 9 20 5 0 7 -9 4 -20z m-198 -20 c-14 -15 -20 -17 -26 -8
-8 13 7 28 30 28 11 0 10 -5 -4 -20z m204 -57 c-1 -22 -3 -30 -6 -18 -3 11 -9
25 -14 31 -5 6 -6 14 -2 17 15 16 23 5 22 -30z"/>
<path d="M650 860 c0 -5 5 -10 10 -10 6 0 10 5 10 10 0 6 -4 10 -10 10 -5 0
-10 -4 -10 -10z"/>
<path d="M510 721 c-14 -4 -32 -7 -40 -6 -9 2 -16 -5 -16 -15 0 -10 3 -17 7
-14 4 2 6 -7 5 -21 0 -14 -4 -25 -8 -25 -5 0 -8 -18 -8 -39 0 -22 -6 -42 -12
-45 -7 -2 11 -4 39 -4 43 1 50 3 36 13 -11 8 -13 14 -5 19 22 13 12 26 -18 26
-16 0 -30 5 -30 11 0 6 7 8 16 5 11 -4 15 -2 11 8 -8 20 4 28 20 14 17 -14 28
-4 19 17 -3 9 -11 13 -16 10 -13 -8 -40 12 -40 29 0 6 5 3 11 -6 5 -10 15 -18
21 -18 7 0 6 5 -2 15 -7 8 -9 15 -5 15 4 0 13 -7 20 -17 8 -11 14 -13 19 -5 4
7 2 12 -5 12 -8 0 -8 4 1 15 7 8 11 15 9 14 -2 0 -15 -4 -29 -8z"/>
<path d="M500 630 c0 -6 7 -10 15 -10 8 0 15 2 15 4 0 2 -7 6 -15 10 -8 3 -15
1 -15 -4z"/>
<path d="M287 305 c-9 -8 -13 -24 -10 -35 7 -25 23 -16 18 10 -3 17 1 20 28
19 24 -1 27 -3 12 -7 -11 -4 -21 -13 -22 -19 -3 -15 -1 -16 29 -4 13 6 39 12
60 16 20 3 39 12 42 20 8 22 -136 22 -157 0z m123 -7 c0 -11 -22 -10 -39 1
-10 7 -7 9 12 8 15 -1 27 -5 27 -9z"/>
<path d="M470 310 c0 -5 7 -7 15 -4 8 4 15 8 15 10 0 2 -7 4 -15 4 -8 0 -15
-4 -15 -10z"/>
<path d="M104 298 c12 -7 15 -13 7 -17 -6 -4 1 -14 19 -25 25 -14 30 -15 30
-3 0 8 7 18 16 21 11 4 15 2 11 -7 -3 -8 -1 -20 4 -28 5 -8 9 -9 9 -3 0 7 6
12 13 11 40 -1 46 4 44 32 l-2 29 -85 0 c-65 1 -80 -2 -66 -10z m133 -24 c-3
-3 -12 -4 -19 -1 -8 3 -5 6 6 6 11 1 17 -2 13 -5z"/>
<path d="M1049 243 c29 -15 31 -18 15 -24 -11 -4 -13 -8 -6 -8 7 -1 10 -5 7
-11 -4 -6 8 -10 30 -10 23 0 34 4 30 11 -4 6 -13 8 -21 5 -7 -3 -11 0 -8 7 4
12 -48 47 -69 47 -7 0 3 -8 22 -17z"/>
<path d="M985 240 c11 -5 27 -9 35 -9 13 -1 13 0 0 9 -8 5 -24 9 -35 9 l-20 0
20 -9z"/>
<path d="M955 200 l-70 -6 65 -2 c36 -1 72 3 80 8 8 5 11 9 5 8 -5 -1 -41 -4
-80 -8z"/>
<path d="M758 193 c23 -2 61 -2 85 0 23 2 4 4 -43 4 -47 0 -66 -2 -42 -4z"/>
<path d="M1319 176 c11 -13 11 -16 0 -16 -8 0 0 -9 16 -20 37 -25 41 -25 41
-1 0 12 -13 25 -35 36 -30 14 -33 14 -22 1z"/>
<path d="M1520 180 c0 -5 32 -21 83 -39 22 -9 29 -8 33 4 11 28 -14 43 -67 42
-27 -1 -49 -4 -49 -7z"/>
<path d="M1688 176 c-20 -11 -28 -11 -32 -3 -3 7 -4 -5 -3 -26 l3 -39 -95 3
c-53 2 -102 0 -110 -5 -11 -7 -13 -5 -8 6 3 10 -3 19 -19 27 -34 15 -36 14
-32 -11 2 -13 16 -29 33 -38 17 -8 32 -18 33 -23 2 -4 7 -5 12 -2 4 3 13 -2
20 -10 17 -21 123 -21 144 0 8 9 18 16 21 15 3 0 10 0 16 0 13 0 51 86 47 105
-3 13 -7 13 -30 1z"/>
<path d="M40 156 c0 -14 4 -27 8 -30 5 -3 6 8 4 25 -5 35 -12 38 -12 5z"/>
<path d="M1190 150 c11 -8 8 -10 -15 -8 -20 2 -29 -1 -27 -10 2 -10 -2 -10
-17 -2 -29 15 -39 12 -16 -6 19 -15 19 -16 -10 -10 -16 3 -46 1 -65 -3 -27 -7
-16 -9 45 -6 44 2 81 9 83 14 4 13 51 14 70 2 11 -6 10 -10 -3 -15 -10 -3 -24
-1 -32 5 -7 7 -16 9 -20 5 -3 -3 0 -6 8 -7 8 0 -8 -7 -36 -14 l-50 -12 96 1
c108 1 111 6 32 51 -45 25 -72 34 -43 15z"/>
<path d="M1058 133 c6 -2 18 -2 25 0 6 3 1 5 -13 5 -14 0 -19 -2 -12 -5z"/>
<path d="M829 111 c12 -8 51 -4 51 5 0 2 -15 4 -32 4 -23 0 -29 -3 -19 -9z"/>
<path d="M901 116 c12 -10 59 -15 59 -6 0 5 -14 10 -32 10 -17 0 -29 -2 -27
-4z"/>
<path d="M1080 80 c-8 -5 -12 -12 -9 -15 4 -3 12 1 19 10 14 17 11 19 -10 5z"/>
<path d="M1180 69 c0 -5 5 -7 10 -4 6 3 10 8 10 11 0 2 -4 4 -10 4 -5 0 -10
-5 -10 -11z"/>
<path d="M1300 50 c0 -5 12 -10 26 -10 14 0 23 4 19 10 -3 6 -15 10 -26 10
-10 0 -19 -4 -19 -10z"/>
</g>
</svg>
